<svg xmlns="http://www.w3.org/2000/svg" xmlns:xlink="http://www.w3.org/1999/xlink" width="500" zoomAndPan="magnify" viewBox="0 0 375 374.999991" height="500" preserveAspectRatio="xMidYMid meet" version="1.0"><defs><g/></defs><g fill="#ffff" fill-opacity="1"><g transform="translate(110.662394, 256.374541)"><g><path d="M 10.285156 -0.246094 L 40.65625 -0.246094 L 40.65625 -129.070312 L 10.285156 -129.3125 Z M 64.167969 -129.070312 C 64.167969 -129.070312 73.472656 -127.355469 82.78125 -117.558594 C 92.332031 -107.515625 94.292969 -99.191406 94.292969 -99.191406 L 94.292969 -129.070312 Z M 49.472656 -62.207031 C 51.1875 -62.207031 57.308594 -59.757812 63.433594 -53.144531 C 70.78125 -45.554688 72.25 -38.941406 72.25 -38.941406 L 72.25 -85.472656 C 72.25 -85.472656 70.78125 -78.863281 63.433594 -71.269531 C 57.308594 -64.65625 51.1875 -62.207031 49.472656 -62.207031 Z M 49.472656 -62.207031 "/></g></g></g><g fill="#fff" fill-opacity="1"><g transform="translate(170.181921, 256.374541)"><g/></g></g><g fill="#fff" fill-opacity="1"><g transform="translate(154.865766, 273.48452)"><g><path d="M 9.265625 0 L 39.777344 0 L 94.46875 -119.105469 L 62.378906 -119.105469 Z M 12.882812 -86.558594 C 12.882812 -86.558594 15.140625 -95.824219 25.3125 -106.449219 C 35.484375 -117.296875 45.425781 -119.105469 45.425781 -119.105469 L 12.882812 -119.105469 Z M 61.925781 0 L 94.46875 0 L 94.46875 -32.542969 C 94.46875 -32.542969 92.210938 -23.277344 82.039062 -12.65625 C 72.09375 -1.808594 61.925781 0 61.925781 0 Z M 61.925781 0 "/></g></g></g></svg>